<?xml version="1.0" standalone="no"?>
<!DOCTYPE svg PUBLIC "-//W3C//DTD SVG 20010904//EN"
 "http://www.w3.org/TR/2001/REC-SVG-20010904/DTD/svg10.dtd">
<svg version="1.0" xmlns="http://www.w3.org/2000/svg"
 width="300.000000pt" height="300.000000pt" viewBox="0 0 300.000000 300.000000"
 preserveAspectRatio="xMidYMid meet">
<metadata>
Created by potrace 1.11, written by Peter Selinger 2001-2013
</metadata>
<g transform="translate(0.000000,300.000000) scale(0.100000,-0.100000)"
fill="#000000" stroke="none">
<path d="M130 2535 l0 -315 810 0 810 0 0 315 0 315 -810 0 -810 0 0 -315z"/>
<path d="M1920 2549 c0 -240 3 -299 13 -292 6 6 181 135 387 288 206 153 382
284 390 291 12 12 -45 14 -388 14 l-402 0 0 -301z"/>
<path d="M2648 2602 c-108 -81 -197 -149 -197 -152 -1 -3 88 -111 197 -240
l197 -235 3 198 c1 109 1 283 0 387 l-3 189 -197 -147z"/>
<path d="M2110 2205 l-195 -144 -792 -1 -793 0 0 -225 c0 -173 3 -225 13 -225
6 0 213 0 459 0 l448 0 44 -67 c23 -38 128 -198 231 -358 103 -159 212 -329
243 -377 30 -49 59 -88 63 -88 4 0 189 215 411 478 223 262 430 507 461 544
l57 67 -216 258 c-119 142 -221 263 -227 270 -9 10 -56 -20 -207 -132z"/>
<path d="M2388 1085 l-458 -526 0 -214 0 -215 460 0 460 0 0 740 c0 407 -1
740 -2 740 -2 0 -209 -237 -460 -525z"/>
<path d="M340 790 l0 -660 695 0 695 0 0 218 -1 217 -311 443 -312 442 -383 0
-383 0 0 -660z"/>
</g>
</svg>
